<svg xmlns="http://www.w3.org/2000/svg"><style>[opacity]{opacity:var(--ico-2-opacity,.2)}</style><symbol id="i-beer-stein" viewBox="0 0 256 256"><path opacity=".2" d="M192 72V208a8 8 0 01-8 8H56a8 8 0 01-8-8V72z"/><path d="M104 104v80a8 8 0 01-16 0V104a8 8 0 0116 0zm40-8a8 8 0 00-8 8v80a8 8 0 0016 0V104a8 8 0 00-8-8zm96 16v64a24 24 0 01-24 24H200v8a16 16 0 01-16 16H56A16 16 0 0140 208V72c0-31 29-56 64-56 17 0 33 6 45 16h11a40 40 0 0140 40V88h16a24 24 0 0124 24zM57 64H183A24 24 0 00160 48H146a8 8 0 01-6-2c-9-9-22-14-36-14-23 0-43 14-47 32zM184 208V192c0 0 0 0 0 0s0 0 0 0V80H56V208H184zm40-96a8 8 0 00-8-8H200v80h16a8 8 0 008-8z"/></symbol><symbol id="i-bowl-food" viewBox="0 0 256 256"><path opacity=".2" d="M224 112a96 96 0 01-56 87v9a8 8 0 01-8 8H96a8 8 0 01-8-8v-9A96 96 0 0132 112z"/><path d="M224 104h-8A88 88 0 0040 104H32a8 8 0 00-8 8 104 104 0 0056 92v4a16 16 0 0016 16h64a16 16 0 0016-16v-4a104 104 0 0056-92 8 8 0 00-8-8zM173 56q3 2 6 5a88 88 0 00-49 43H100a72 72 0 0168-48c2 0 4 0 5 0zm16 18a71 71 0 0111 30H148a72 72 0 0141-30zM128 40a72 72 0 0119 3A88 88 0 0083 104H56a72 72 0 0172-64zm37 152a8 8 0 00-5 7v9H96v-9a8 8 0 00-5-7A88 88 0 0140 120H216a88 88 0 01-51 72z"/></symbol><symbol id="i-bread" viewBox="0 0 256 256"><path opacity=".2" d="M208 111v89a8 8 0 01-8 8H144a8 8 0 008-8V111a32 32 0 00-8-63h56a32 32 0 018 63z"/><path d="M240 80A40 40 0 00200 40H48A40 40 0 0032 117v83a16 16 0 0016 16H200a16 16 0 0016-16V117a40 40 0 0024-37zM48 120a8 8 0 000-16 24 24 0 010-48h96a24 24 0 010 48 8 8 0 000 16v80H48zm152-16a8 8 0 000 16v80H160V117a40 40 0 0016-61h24a24 24 0 010 48z"/></symbol><symbol id="i-cake" viewBox="0 0 256 256"><path opacity=".2" d="M104 48c0-24 24-40 24-40s24 16 24 40a24 24 0 01-48 0zM208 96H48A16 16 0 0032 112v23c0 18 14 33 31 33a32 32 0 0033-32 32 32 0 0064 0 32 32 0 0033 32c17 0 31-15 31-33V112A16 16 0 00208 96z"/><path d="M232 112A24 24 0 00208 88H136V79a32 32 0 0024-31c0-28-26-46-28-47a8 8 0 00-8 0c-2 1-28 19-28 47a32 32 0 0024 31v9H48A24 24 0 0024 112v23a41 41 0 008 25v40a24 24 0 0024 24H200a24 24 0 0024-24V160a41 41 0 008-25zM112 48c0-14 10-24 16-30 6 6 16 16 16 30a16 16 0 01-32 0zM40 112a8 8 0 018-8H208a8 8 0 018 8v23c0 14-10 25-23 25a24 24 0 01-25-24 8 8 0 00-16 0 24 24 0 01-48 0 8 8 0 00-16 0A24 24 0 0163 160c-13 0-23-11-23-25zm160 96H56a8 8 0 01-8-8V173a39 39 0 0015 3 40 40 0 0029-11 40 40 0 004-5 40 40 0 0064 0 40 40 0 004 5 40 40 0 0028 11c0 0 1 0 1 0a39 39 0 0015-3v27a8 8 0 01-8 8z"/></symbol><symbol id="i-call-bell" viewBox="0 0 256 256"><path opacity=".2" d="M216 152v24H40V152a88 88 0 01176 0z"/><path d="M24 184H232a8 8 0 000-16h-8V152A96 96 0 00136 56V40h16a8 8 0 000-16H104a8 8 0 000 16h16V56A96 96 0 0032 152v16H24a8 8 0 000 16zm24-32a80 80 0 01160 0v16H48zm192 56a8 8 0 01-8 8H24a8 8 0 010-16H232a8 8 0 018 8z"/></symbol><symbol id="i-carrot" viewBox="0 0 256 256"><path opacity=".2" d="M184 152c-40 40-140 71-140 71A8 8 0 0133 212S64 112 104 72a56 56 0 0180 80z"/><path d="M232 64H203l27-26A8 8 0 00218 26L192 53V24a8 8 0 00-16 0V57A64 64 0 0099 67l0 0 0 0 0 0C59 106 29 200 26 209a16 16 0 0021 21c9-3 103-33 142-73a64 64 0 0010-77h33a8 8 0 000-16zm-54 82c-9 9-21 18-35 26l-25-26a8 8 0 00-12 12l22 22c-40 21-86 35-87 35a8 8 0 00-1 1 8 8 0 001-1c0-1 28-90 64-131l33 34a8 8 0 0012-12L116 73a48 48 0 0162 73z"/></symbol><symbol id="i-champagne" viewBox="0 0 256 256"><path opacity=".2" d="M120 176c-45 0-44-58-36-104h72c8 46 9 104-36 104z"/><path d="M150 14a8 8 0 00-8-6H98a8 8 0 00-8 6A451 451 0 0076 73c-7 44-4 76 9 94a40 40 0 0027 16v49H96a8 8 0 100 16h48a8 8 0 000-16H128V183a40 40 0 0027-16c13-18 16-50 9-94A451 451 0 00150 14zM104 24h32c3 10 7 24 10 40H94c3-16 7-30 10-40zm39 133c-6 8-13 11-23 11s-17-3-23-11c-11-15-10-47-6-77h58c4 30 5 62-6 77zM232 52A12 12 0 11220 40a12 12 0 0112 12zM184 20a12 12 0 1112 12A12 12 0 01184 20zm24 80A12 12 0 11196 88a12 12 0 0112 12z"/></symbol><symbol id="i-coffee" viewBox="0 0 256 256"><path opacity=".2" d="M208 88v48a88 88 0 01-51 80H83A88 88 0 0132 136V88z"/><path d="M80 56V24a8 8 0 0116 0V56A8 8 0 0180 56zm40 8a8 8 0 008-8V24a8 8 0 00-16 0V56a8 8 0 008 8zm32 0a8 8 0 008-8V24a8 8 0 00-16 0V56a8 8 0 008 8zm96 56v8a40 40 0 01-38 40 97 97 0 01-27 40h25a8 8 0 010 16H32a8 8 0 010-16H57A96 96 0 0124 136V88a8 8 0 018-8H208a40 40 0 0140 40zM200 96H40v40a80 80 0 0045 72h70a80 80 0 0045-72zm32 24A24 24 0 00216 97v39a96 96 0 01-1 15 24 24 0 0017-23z"/></symbol><symbol id="i-cookie" viewBox="0 0 256 256"><path opacity=".2" d="M224 128A96 96 0 11128 32a48 48 0 0048 48 48 48 0 0048 48z"/><path d="M164 164a12 12 0 11-17 0 12 12 0 0117 0zm-81-8a12 12 0 1017 0 12 12 0 00-16 0zm9-39a12 12 0 10-17 0 12 12 0 0017-1zm48-1a12 12 0 100 17 12 12 0 000-17zm92 12A104 104 0 11128 24a8 8 0 018 8 40 40 0 0040 40 8 8 0 018 8 40 40 0 0040 40 8 8 0 018 8zm-16 7A56 56 0 01169 88 56 56 0 01121 40a88 88 0 1095 95z"/></symbol><symbol id="i-cooking-pot" viewBox="0 0 256 256"><path opacity=".2" d="M216 80V184a24 24 0 01-24 24H64A24 24 0 0140 184V80z"/><path d="M88 48V16a8 8 0 0116 0V48A8 8 0 0188 48zm40 8a8 8 0 008-8V16a8 8 0 00-16 0V48a8 8 0 008 8zm32 0a8 8 0 008-8V16a8 8 0 00-16 0V48a8 8 0 008 8zm93 46-29 22v60a32 32 0 01-32 32H64A32 32 0 0132 184V124L3 102A8 8 0 0113 90l19 14V80a8 8 0 018-8H216a8 8 0 018 8v24l19-14a8 8 0 0110 12zM208 88H48v96a16 16 0 0016 16H192a16 16 0 0016-16z"/></symbol><symbol id="i-egg" viewBox="0 0 256 256"><path opacity=".2" d="M208 152A80 80 0 0148 152C48 88 96 24 128 24s80 64 80 128z"/><path d="M187 60c-19-28-40-44-59-44S88 32 69 60c-18 28-29 61-29 92a88 88 0 00176 0c0-31-11-64-29-92zM128 224A72 72 0 0156 152c0-28 10-58 27-84 14-21 32-36 45-36s31 15 45 36c17 26 27 56 27 84a72 72 0 01-72 72z"/></symbol><symbol id="i-fish" viewBox="0 0 256 256"><path opacity=".2" d="M186 168c-18 14-44 23-82 24L80 248 64 192 8 176l56-24c1-38 10-64 24-82a44 44 0 0048 50 44 44 0 0050 48z"/><path d="M168 76A12 12 0 11156 64a12 12 0 0112 12zm49 68c-20 35-56 53-108 56L87 251a8 8 0 01-7 5l0 0a8 8 0 01-8-6L58 198 6 184A8 8 0 015 169l51-22c3-52 21-88 56-108 25-13 53-16 72-15 19 1 36 4 39 6a8 8 0 013 3c2 3 5 20 6 39 1 19-2 47-15 72zm-55 29a52 52 0 01-34-45A52 52 0 0183 94q-10 24-11 58a8 8 0 01-5 7L32 174l34 10a8 8 0 016 6l10 34 15-35a8 8 0 017-5q34-1 58-11zM212 44c-14-3-64-11-100 14A81 81 0 0096 73a36 36 0 0039 39 8 8 0 019 9 36 36 0 0039 39 81 81 0 0015-16c25-36 17-86 14-100z"/></symbol><symbol id="i-fork-knife" viewBox="0 0 256 256"><path opacity=".2" d="M208 40V168H152s0-104 56-128z"/><path d="M72 88V40a8 8 0 0116 0V88A8 8 0 0172 88zM216 40V224a8 8 0 01-16 0V176H152a8 8 0 01-8-8 269 269 0 017-57c10-40 29-68 54-78a8 8 0 0111 7zM200 54c-32 24-38 84-40 106h40zM120 39a8 8 0 10-16 2l8 48A32 32 0 0148 89l8-48A8 8 0 1040 39L32 87a8 8 0 000 1 48 48 0 0040 47v89a8 8 0 0016 0V135a48 48 0 0040-47 8 8 0 000-1z"/></symbol><symbol id="i-pizza" viewBox="0 0 256 256"><path opacity=".2" d="M218 92l-31 50a32 32 0 10-33 55l-19 31a8 8 0 01-14 0L84 168A32 32 0 1054 118L38 92a160 160 0 01180 0z"/><path d="M240 63a16 16 0 00-8-10A201 201 0 0024 53 16 16 0 0018 75l96 157a16 16 0 0028 0l52-85v0l44-72a16 16 0 002-12zM64 119a24 24 0 1124 40zm88 66a24 24 0 0124-40zm32-53a40 40 0 00-41 67l-15 25-31-52A40 40 0 1055 105L49 94a152 152 0 01158 0zm32-51A168 168 0 0040 81L32 67a186 186 0 01192 0z"/></symbol><symbol id="i-wine" viewBox="0 0 256 256"><path opacity=".2" d="M182 163A80 80 0 0173 163 56 56 0 0158 106l2-5h0c12-6 35-10 68 7 36 18 60 12 71 6h0a56 56 0 01-17 49z"/><path d="M205 104 184 30a8 8 0 00-8-6H80a8 8 0 00-8 6L51 104a63 63 0 0017 64 87 87 0 0052 24v40H88a8 8 0 100 16h80a8 8 0 100-16H136V192a87 87 0 0052-24 63 63 0 0017-64zM86 40h84l20 68c0 0 0 1 0 1-21 8-45-2-58-8-26-13-46-15-60-12zm91 117a72 72 0 01-98 0A48 48 0 0166 108l0-1c12-4 32-5 58 8 12 6 30 13 49 13a69 69 0 0019-3 47 47 0 01-15 32z"/></symbol></svg>
